<svg width="36" height="36" viewBox="0 0 36 36" fill="none" xmlns="http://www.w3.org/2000/svg"><g clip-path="url(#a)" fill="#CE1257"><path d="M0 18c0-.304.247-.552.552-.552h34.896a.552.552 0 0 1 0 1.104H.552A.552.552 0 0 1 0 18z"/><path d="M0 17.998c0-.147.058-.287.161-.39l13.83-13.826a.552.552 0 0 1 .78.78L1.331 17.997l13.44 13.44a.552.552 0 0 1-.78.78L.162 18.387a.55.55 0 0 1-.162-.39z"/></g><defs><clipPath id="a"><path fill="#fff" transform="rotate(90 18 18)" d="M0 0h36v36H0z"/></clipPath></defs></svg>