<svg width="36" height="36" viewBox="0 0 36 36" fill="none" xmlns="http://www.w3.org/2000/svg"><g clip-path="url(#a)" fill="#CE1257"><path d="M36 18a.552.552 0 0 1-.552.552H.552a.552.552 0 0 1 0-1.103h34.896c.305 0 .552.247.552.551z"/><path d="M36 18.002a.555.555 0 0 1-.161.39l-13.83 13.826a.552.552 0 0 1-.78-.78l13.44-13.435-13.44-13.44a.552.552 0 0 1 .78-.78l13.829 13.83a.55.55 0 0 1 .162.39z"/></g><defs><clipPath id="a"><path fill="#fff" transform="rotate(-90 18 18)" d="M0 0h36v36H0z"/></clipPath></defs></svg>