<svg width="33" height="33" viewBox="0 0 33 33" fill="none" xmlns="http://www.w3.org/2000/svg">
<g clip-path="url(#clip0)">
<path d="M16.317 32.634C16.041 32.634 15.817 32.41 15.817 32.134V0.5C15.817 0.224 16.041 0 16.317 0C16.593 0 16.817 0.224 16.817 0.5V32.134C16.817 32.41 16.593 32.634 16.317 32.634Z" fill="#F6F6F6"/>
<path d="M16.315 32.634C16.182 32.634 16.055 32.581 15.961 32.488L3.428 19.951C3.233 19.756 3.233 19.439 3.428 19.244C3.623 19.049 3.94 19.049 4.135 19.244L16.314 31.427L28.498 19.244C28.693 19.049 29.01 19.049 29.205 19.244C29.4 19.439 29.4 19.756 29.205 19.951L16.668 32.487C16.574 32.581 16.448 32.634 16.315 32.634Z" fill="#F6F6F6"/>
</g>
<defs>
<clipPath id="clip0">
<rect width="32.634" height="32.634" fill="white"/>
</clipPath>
</defs>
</svg>
