<svg width="36" height="36" viewBox="0 0 36 36" fill="none" xmlns="http://www.w3.org/2000/svg">
<g clip-path="url(#clip0)">
<path d="M4.20877e-09 18.0001C1.88552e-09 17.6956 0.247101 17.4485 0.551571 17.4485L35.4484 17.4485C35.7529 17.4485 36 17.6956 36 18.0001C36 18.3045 35.7529 18.5516 35.4484 18.5516L0.551571 18.5516C0.247101 18.5516 6.53201e-09 18.3045 4.20877e-09 18.0001Z" fill="#CE1257"/>
<path d="M1.09708e-07 17.9979C1.08589e-07 17.8512 0.0584661 17.7111 0.161059 17.6074L13.9912 3.7817C14.2063 3.56658 14.556 3.56658 14.7711 3.7817C14.9862 3.99681 14.9862 4.34651 14.7711 4.56162L1.33149 17.9968L14.7711 31.4375C14.9862 31.6526 14.9862 32.0023 14.7711 32.2174C14.556 32.4326 14.2063 32.4326 13.9912 32.2174L0.162161 18.3873C0.0584661 18.2836 1.10828e-07 18.1446 1.09708e-07 17.9979Z" fill="#CE1257"/>
</g>
<defs>
<clipPath id="clip0">
<rect width="36" height="36" fill="white" transform="translate(36) rotate(90)"/>
</clipPath>
</defs>
</svg>
