<svg width="30" height="30" viewBox="0 0 30 30" fill="none" xmlns="http://www.w3.org/2000/svg"><g clip-path="url(#a)" fill="#08415C"><path d="M20.76 15.492c-.064.055-.082.123-.129.207a.57.57 0 0 0 .34.719.57.57 0 0 0 .718-.34c.018-.067.036-.134.089-.24l.066-.249a6.165 6.165 0 0 0 .192-1.977c-.06-.86-.345-1.686-.752-2.422a5.903 5.903 0 0 0-2.13-2.141 6.188 6.188 0 0 0-1.372-.56 3.951 3.951 0 0 0-.501-.11l-.491-.06c-.305-.033-.587.205-.591.494-.034.305.205.586.493.59.141.014.26.022.395.058l.068.018c.112.03.231.038.344.068a4.614 4.614 0 0 1 2.843 2.187 4.7 4.7 0 0 1 .484 3.51l-.012.045-.055.203z"/><path d="M25.273 9.741a12.11 12.11 0 0 0-8.415-5.901 8.091 8.091 0 0 0-1.05-.136c-.305-.034-.586.205-.591.493-.034.305.205.586.493.591.164.02.305.034.47.053.163.02.327.04.484.082.322.062.62.118.936.202 2.929.785 5.267 2.692 6.692 5.126a10.98 10.98 0 0 1 1.092 8.357l-.132.496c-.037.135-.095.265-.137.422a.57.57 0 0 0 .338.719.57.57 0 0 0 .719-.339c.113-.332.226-.664.31-.98.864-3.22.342-6.5-1.209-9.185zM24.206 24.088l-3.414-3.209c-1.136-1.077-1.308-.616-3.103.497-.435.27-1.32 1.047-2.014.668-1.452-.8-3.749-3.854-4.417-5.144-.318-.616-1.622-3.501-1.439-4.273.269-1.184 2.994-1.081 2.758-3.535l-.711-4.465c-.641-4.276-6.947.602-7.33 3.566-.898 7.317 8.416 22.03 16.318 20.116 1.76-.446 4.637-2.887 3.352-4.221z"/></g><defs><clipPath id="a"><path fill="#fff" transform="rotate(15 2.106 24.894)" d="M0 0h24v24H0z"/></clipPath></defs></svg>