<svg width="24" height="24" viewBox="0 0 24 24" fill="none" xmlns="http://www.w3.org/2000/svg"><path d="M18.174 12.543a.64.64 0 0 0 0-.913.63.63 0 0 0-.904 0l-4.63 4.621V.981a.643.643 0 1 0-1.288 0v15.27l-4.62-4.621a.64.64 0 0 0-.914 0 .64.64 0 0 0 0 .913l5.726 5.726a.656.656 0 0 0 .913 0l5.717-5.726zm4.538 4.192c0-.356.283-.639.64-.639.356 0 .648.283.648.64v6.282a.65.65 0 0 1-.648.649H.639A.643.643 0 0 1 0 23.018v-6.283c0-.356.283-.639.64-.639.355 0 .648.283.648.64v5.643h21.424v-5.644z" fill="#F6F6F6"/></svg>