<svg width="124" height="124" viewBox="0 0 124 124" fill="none" xmlns="http://www.w3.org/2000/svg"><g clip-path="url(#a)" fill="#CE1257" fill-opacity=".25"><path d="M98.037 50.763c-.193-2.713 0-10.075 6.976-20.15.581-.776.387-1.744-.194-2.52-2.906-2.905-4.65-4.65-5.813-6.006-1.55-1.743-2.325-2.518-3.487-3.487-.775-.581-1.744-.581-2.519 0-12.206 10.656-25.963 32.744-23.831 59.675 1.162 15.887 12.787 27.319 27.512 27.319 15.113 0 27.513-12.4 27.513-27.513-.194-14.531-11.625-26.35-26.157-27.319zM29.256 50.763c-.194-2.713 0-10.075 6.975-20.15.581-.776.388-1.744-.194-2.52-2.906-2.905-4.65-4.65-5.812-6.006-1.55-1.743-2.325-2.518-3.488-3.487-.774-.581-1.743-.581-2.518 0C11.819 29.45-1.744 51.344.194 78.469c1.162 15.887 12.787 27.318 27.512 27.318 15.113 0 27.513-12.4 27.513-27.512 0-14.725-11.431-26.544-25.963-27.513z"/></g><defs><clipPath id="a"><path fill="#fff" d="M0 0h124v124H0z"/></clipPath></defs></svg>