<svg width="124" height="124" viewBox="0 0 124 124" fill="none" xmlns="http://www.w3.org/2000/svg"><g clip-path="url(#a)" fill="#CE1257" fill-opacity=".25"><path d="M25.962 73.237c.194 2.713 0 10.076-6.974 20.15-.582.775-.388 1.744.193 2.52 2.906 2.906 4.65 4.649 5.813 6.006 1.55 1.743 2.325 2.518 3.487 3.487.775.581 1.744.581 2.519 0 12.206-10.656 25.962-32.744 23.831-59.675C53.67 29.837 42.044 18.406 27.32 18.406c-15.113 0-27.513 12.4-27.513 27.513C0 60.45 11.431 72.269 25.962 73.238zM94.744 73.237c.194 2.713 0 10.076-6.975 20.15-.582.775-.388 1.744.194 2.52 2.906 2.906 4.65 4.649 5.812 6.006 1.55 1.743 2.325 2.518 3.487 3.487.775.581 1.744.581 2.52 0 12.399-10.85 25.962-32.744 24.024-59.869-1.162-15.887-12.787-27.319-27.512-27.319-15.113 0-27.513 12.4-27.513 27.513 0 14.725 11.431 26.544 25.963 27.512z"/></g><defs><clipPath id="a"><path fill="#fff" transform="rotate(180 62 62)" d="M0 0h124v124H0z"/></clipPath></defs></svg>