<svg width="28" height="29" viewBox="0 0 28 29" fill="none" xmlns="http://www.w3.org/2000/svg"><path fill="#fff" d="M2 3h24v24H2z"/><path d="M20.164 15.515v-.51l2.651-3.318a2.93 2.93 0 0 0 .64-1.83c0-.65-.524-1.175-1.172-1.175h-2.887a1.11 1.11 0 0 0-1.023.676 21.252 21.252 0 0 1-2.188 4.372.857.857 0 0 1-.961.066V9.582a.903.903 0 0 0-.9-.9h-3.627a.413.413 0 0 0-.293.703l.223.224c.305.305.479.719.479 1.151v3.133a.288.288 0 0 1-.143.077.62.62 0 0 1-.39-.224 35.542 35.542 0 0 1-2.805-4.84.408.408 0 0 0-.367-.224H4.765a1.07 1.07 0 0 0-1.069 1.07v.209c0 .869.243 1.722.699 2.46 2.207 3.557 5.237 7.795 7.124 7.795h2.694a1.01 1.01 0 0 0 1.01-1.012v-.707a.751.751 0 0 1 1.286-.533l1.71 1.71c.347.349.814.542 1.304.542h2.937a.999.999 0 0 0 .706-1.7l-3.002-3.001z" fill="#08415C"/><path d="M14 27.067c7.18 0 13-5.82 13-13s-5.82-13-13-13-13 5.82-13 13 5.82 13 13 13z" stroke="#08415C" stroke-width="2" stroke-miterlimit="10"/></svg>